<mxfile host="app.diagrams.net" modified="2024-02-19T11:22:18.683Z" agent="Mozilla/5.0 (X11; Linux x86_64) AppleWebKit/537.36 (KHTML, like Gecko) Chrome/121.0.0.0 Safari/537.36" version="23.1.5" etag="GM0m77il425dReeU2AMD" type="github">
  <diagram name="Page-1" id="I86e71ZflKchEbNClNVc">
    <mxGraphModel>
      <root>
        <mxCell id="0" />
        <mxCell id="1" parent="0" />
      </root>
    </mxGraphModel>
  </diagram>
</mxfile>
